<?xml version="1.0" standalone="no"?>
<!DOCTYPE svg PUBLIC "-//W3C//DTD SVG 20010904//EN"
 "http://www.w3.org/TR/2001/REC-SVG-20010904/DTD/svg10.dtd">
<svg version="1.0" xmlns="http://www.w3.org/2000/svg"
 width="1280.000000pt" height="1280.000000pt" viewBox="0 0 1280.000000 1280.000000"
 preserveAspectRatio="xMidYMid meet">
<metadata>
Created by potrace 1.16, written by Peter Selinger 2001-2019
</metadata>
<g transform="translate(0.000000,1280.000000) scale(0.100000,-0.100000)"
fill="#000000" stroke="none">
<path d="M6165 12793 c-220 -8 -613 -49 -810 -84 -501 -90 -886 -197 -1295
-360 -238 -95 -283 -115 -478 -211 -157 -76 -249 -127 -517 -282 -102 -59
-354 -231 -501 -342 -282 -213 -454 -363 -699 -609 -134 -135 -187 -192 -316
-339 -330 -377 -679 -910 -903 -1381 -94 -196 -91 -191 -131 -284 -254 -596
-409 -1206 -480 -1881 -83 -795 0 -1656 236 -2445 66 -220 169 -504 249 -685
22 -52 51 -117 63 -145 35 -81 210 -423 267 -520 231 -399 493 -762 788 -1094
77 -87 391 -401 477 -478 309 -273 620 -507 925 -693 730 -448 1495 -732 2370
-879 200 -34 569 -67 850 -77 276 -9 687 15 1027 62 590 80 1240 271 1768 519
50 23 102 46 115 50 14 4 30 11 35 15 6 4 73 40 150 80 117 61 259 141 387
219 293 176 683 468 953 714 116 106 360 350 452 452 226 252 493 604 646 850
21 33 42 67 47 75 86 135 223 385 315 575 497 1025 713 2175 619 3295 -65 774
-239 1437 -567 2165 -53 119 -201 404 -272 525 -37 63 -73 124 -79 135 -6 11
-21 34 -33 52 -13 17 -23 34 -23 37 0 19 -347 503 -420 586 -12 14 -56 67 -98
119 -211 258 -546 586 -862 843 -160 130 -442 333 -588 424 -167 103 -329 197
-480 276 -75 39 -148 77 -162 85 -14 7 -28 13 -32 13 -4 0 -45 18 -90 39 -101
48 -231 105 -316 137 -34 13 -77 30 -95 38 -58 26 -414 142 -492 161 -5 1 -17
5 -25 8 -8 3 -78 23 -155 43 -568 148 -1219 219 -1820 197z m3714 -3790 c87
-93 105 -131 105 -218 0 -84 -22 -134 -93 -205 -43 -43 -54 -49 -117 -59 -38
-6 -197 -18 -354 -26 -289 -14 -343 -23 -360 -55 -6 -10 -22 -76 -36 -145 -14
-70 -34 -155 -44 -189 -10 -33 -26 -92 -35 -131 -10 -38 -44 -173 -77 -300
-33 -126 -73 -282 -88 -345 -47 -192 -89 -360 -114 -455 -13 -49 -45 -175 -70
-280 -216 -890 -277 -1108 -348 -1248 -62 -124 -178 -199 -398 -258 -70 -19
-110 -41 -110 -60 0 -5 19 -13 41 -19 86 -23 173 -92 290 -230 106 -126 135
-172 167 -270 34 -103 43 -156 43 -259 1 -239 -95 -458 -276 -628 -170 -161
-370 -243 -589 -243 -295 0 -614 205 -754 485 -51 101 -70 166 -83 283 -11
103 1 251 28 332 68 206 232 402 422 504 50 27 91 55 91 62 0 7 -20 15 -47 18
-89 12 -1520 18 -1706 7 -98 -6 -182 -13 -188 -17 -15 -9 16 -35 74 -63 148
-71 322 -249 394 -401 16 -33 51 -143 64 -199 15 -65 13 -227 -4 -306 -38
-179 -117 -319 -256 -455 -167 -163 -373 -250 -589 -250 -302 0 -619 202 -760
485 -51 101 -70 166 -83 283 -11 103 1 251 28 332 67 201 234 403 411 498 98
52 114 68 87 88 -10 8 -35 14 -54 14 -123 1 -339 112 -412 213 -40 54 -122
226 -142 297 -9 30 -26 100 -38 155 -11 55 -32 138 -46 185 -55 183 -126 432
-163 570 -22 80 -54 197 -71 260 -17 63 -51 189 -74 280 -60 231 -206 754
-226 810 -30 83 -60 216 -66 288 l-6 82 1994 0 c1964 -1 2667 -8 2723 -30 27
-10 28 -13 23 -53 -3 -23 -22 -89 -41 -147 -19 -58 -38 -134 -41 -170 -10 -95
-23 -130 -53 -141 -14 -5 -105 -14 -201 -20 -164 -9 -2283 -28 -3235 -29
l-418 0 7 -47 c8 -58 82 -359 95 -391 5 -12 26 -84 46 -160 48 -186 57 -219
94 -352 18 -63 47 -171 65 -240 28 -107 66 -242 187 -668 14 -49 28 -77 42
-85 29 -17 2975 -16 3119 1 110 12 147 29 147 67 0 14 49 222 109 462 60 241
166 663 235 938 368 1476 382 1528 451 1651 73 131 215 227 371 253 27 5 229
9 450 10 l400 1 63 -67z"/>
<path d="M4830 4511 c-80 -16 -175 -94 -216 -177 -48 -98 -21 -209 74 -296 67
-62 116 -81 192 -76 74 6 129 34 183 95 80 89 98 150 72 240 -14 49 -28 69
-84 125 -65 64 -85 74 -171 92 -8 2 -31 0 -50 -3z"/>
<path d="M7390 4511 c-80 -16 -175 -94 -216 -177 -48 -98 -21 -209 74 -296 67
-62 116 -81 192 -76 74 6 129 34 183 95 80 89 98 150 72 240 -14 49 -28 69
-84 125 -65 64 -85 74 -171 92 -8 2 -31 0 -50 -3z"/>
</g>
</svg>
